PathFileType	4	(X/Y/Z)	C:\Users\Basilio\Documents\Thesis Gigler\squatting_fais\c3dfiles\038\SJ_pre1\markers_experimental.trc
DataRate	CameraRate	NumFrames	NumMarkers	Units	OrigDataRate	OrigDataStartFrame	OrigNumFrames
200.000000	200.000000	4	61	mm	200.000000	170	1366
Frame#	Time	FHD			LBHD			RBHD			C7			T10			CLAV			LSHO			LUUPA			LMUPA			LDUPA			LLEP			LMEP			LRAD			LUL			LRFIN			RSHO			RUPA1			RMUPA			RDUPA			RLEP			RMEP			RRAD			RUL			RUFIN			LASI			RASI			USACR			LSACR			RSACR			LTHI1			LTHI2			LTHI3			LTHI4			LLFC			LMFC			LTIB1			LTIB2			LTIB3			LTIB4			LLMAL			LMMAL			LHEE			LMT1			LMT2			LMT5			RTHI			RTHI2			RTHI3			RTHI4			RLFC			RMFC			RTIB1			RTIB2			RTIB3			RTIB4			RLMAL			RMMAL			RHEE			RMT1			RMT2			RMT5			
		X1	Y1	Z1	X2	Y2	Z2	X3	Y3	Z3	X4	Y4	Z4	X5	Y5	Z5	X6	Y6	Z6	X7	Y7	Z7	X8	Y8	Z8	X9	Y9	Z9	X10	Y10	Z10	X11	Y11	Z11	X12	Y12	Z12	X13	Y13	Z13	X14	Y14	Z14	X15	Y15	Z15	X16	Y16	Z16	X17	Y17	Z17	X18	Y18	Z18	X19	Y19	Z19	X20	Y20	Z20	X21	Y21	Z21	X22	Y22	Z22	X23	Y23	Z23	X24	Y24	Z24	X25	Y25	Z25	X26	Y26	Z26	X27	Y27	Z27	X28	Y28	Z28	X29	Y29	Z29	X30	Y30	Z30	X31	Y31	Z31	X32	Y32	Z32	X33	Y33	Z33	X34	Y34	Z34	X35	Y35	Z35	X36	Y36	Z36	X37	Y37	Z37	X38	Y38	Z38	X39	Y39	Z39	X40	Y40	Z40	X41	Y41	Z41	X42	Y42	Z42	X43	Y43	Z43	X44	Y44	Z44	X45	Y45	Z45	X46	Y46	Z46	X47	Y47	Z47	X48	Y48	Z48	X49	Y49	Z49	X50	Y50	Z50	X51	Y51	Z51	X52	Y52	Z52	X53	Y53	Z53	X54	Y54	Z54	X55	Y55	Z55	X56	Y56	Z56	X57	Y57	Z57	X58	Y58	Z58	X59	Y59	Z59	X60	Y60	Z60	X61	Y61	Z61	

171	0.85	-157.56396484375	1655.505737304688	-916.392517089844	-314.2854614257813	1598.562255859375	-974.4114990234377	-302.2752380371094	1588.567504882813	-829.1228027343752	-364.6625366210938	1440.22802734375	-895.7644653320315	-406.5027770996095	1160.113159179688	-894.6089477539065	-229.0222625732422	1388.704711914063	-915.746032714844	-280.8917236328126	1431.8671875	-1078.705810546875	-303.7777709960938	1256.026000976563	-1250.06494140625	-265.0586242675782	1226.912353515625	-1232.340942382813	-283.9404907226563	1194.1162109375	-1278.410888671875	-273.1218261718751	1131.570190429688	-1292.069213867188	-351.6535949707032	1112.727294921875	-1286.189819335938	-315.6112060546876	881.419128417969	-1138.333862304688	-261.9976196289063	853.4602661132815	-1178.889282226563	-289.5816040039063	870.4583129882815	-1076.71044921875	-242.4567260742188	1417.158081054688	-745.0791015625001	-216.585433959961	1253.427001953125	-587.4500122070314	-200.4413757324219	1211.81494140625	-607.2946777343751	-209.8026275634766	1194.965209960938	-551.2927856445314	-199.4625091552735	1120.258666992188	-529.8835449218751	-280.6697082519532	1107.216186523438	-514.0455322265626	-261.6092834472657	892.5319824218752	-677.0189208984376	-200.6768188476563	863.0334472656252	-654.2894897460939	-239.4317779541016	877.5195312500002	-745.6212158203126	-305.9636535644532	942.5749511718752	-1018.907104492188	-284.9557189941407	956.104675292969	-771.5697021484377	-449.2294921875001	1035.229248046875	-887.617614746094	-471.2540893554689	1007.252380371094	-912.8494262695315	-463.219207763672	1007.941955566406	-855.0323486328127	-302.8046875000001	686.0135498046876	-1149.052734375	-247.1813964843751	624.0581054687501	-1171.271240234375	-202.3435974121094	641.9437255859376	-1157.462646484375	-252.5617980957032	564.6256103515626	-1161.946044921875	-236.8714141845704	511.2186584472657	-1167.519409179688	-195.4063262939454	492.3757324218751	-1064.7392578125	-211.7515716552735	317.6330871582032	-1118.79443359375	-281.3084411621094	290.0930480957032	-1169.170166015625	-242.6917266845704	277.9139709472657	-1150.66259765625	-261.5848083496094	200.5650329589844	-1118.668823242188	-374.8535766601563	85.08926391601564	-1119.905029296875	-315.3271179199219	95.87071228027345	-1060.62353515625	-407.1314086914064	42.7495346069336	-1057.478881835938	-205.9234619140626	46.5650863647461	-1124.001953125	-216.5621795654297	51.37240600585939	-1172.956298828125	-270.6279907226563	31.39180374145509	-1205.295043945313	-308.7352294921876	725.8841552734376	-669.0432128906251	-260.6663818359376	684.1171264648439	-649.2420043945314	-229.0706176757813	695.5540771484376	-645.3320312500001	-261.7976684570313	597.8600463867189	-658.4436645507814	-210.397201538086	482.4334411621095	-648.6983032226564	-184.5454254150391	483.4754333496095	-757.0646972656251	-193.4017333984376	305.1499023437501	-672.0529174804689	-294.8569335937501	247.3829193115235	-663.1177978515626	-248.3592529296876	239.3501892089844	-662.3666992187501	-242.3829803466797	187.750732421875	-690.7947998046876	-342.0106811523438	88.76663208007814	-688.6150512695314	-289.3907470703126	90.90132904052736	-756.2888183593751	-380.6142883300782	39.54401779174805	-770.1372070312502	-182.0925445556641	47.79364013671876	-678.6024780273439	-201.4408111572266	53.71601867675783	-636.0177001953126	-258.0429077148438	35.74258422851563	-609.3236083984376	
172	0.855	-156.5784454345703	1654.135131835938	-916.3768310546877	-313.4685058593751	1597.795288085938	-974.4053344726565	-301.8139953613282	1587.5341796875	-828.9658813476565	-364.1575622558594	1439.259887695313	-895.7291259765627	-406.5576782226564	1159.418090820313	-894.401550292969	-228.6697235107422	1387.600708007813	-915.7231445312502	-280.3505249023438	1430.868041992188	-1078.599853515625	-303.4088439941407	1255.263061523438	-1250.223510742188	-265.0640258789063	1226.054565429688	-1231.974365234375	-283.6221313476563	1193.11376953125	-1278.460083007813	-272.8563537597657	1130.6298828125	-1292.172973632813	-351.9524536132813	1112.464721679688	-1286.3720703125	-316.2355041503907	880.756530761719	-1138.464965820313	-262.4184265136719	852.6512451171877	-1178.9228515625	-290.0362243652344	869.7239379882815	-1076.72265625	-241.6331481933594	1416.06884765625	-745.0515136718751	-216.1506042480469	1252.445190429688	-587.3569946289064	-199.9283905029297	1210.454956054688	-607.3126220703126	-209.3307342529297	1194.02685546875	-551.2027587890626	-199.1539611816407	1119.291015625	-529.7826538085939	-280.2491455078126	1106.587890625	-513.8909301757814	-261.4925537109376	891.7712402343752	-677.0972900390626	-200.7450561523438	862.1460571289065	-654.2672729492189	-239.6834564208985	876.815612792969	-745.6800537109376	-306.4548950195313	941.570007324219	-1018.790344238281	-285.1657714843751	955.1733398437502	-771.5714111328127	-449.5101013183595	1034.19482421875	-887.4472656250002	-471.5952453613282	1006.389465332031	-912.7573242187502	-463.506317138672	1007.16552734375	-854.9136352539065	-302.7131042480469	685.5184936523439	-1149.209228515625	-247.0012359619141	623.8787841796876	-1171.453735351563	-202.2851562500001	641.6707153320314	-1157.694702148438	-252.2191619873047	564.4143676757814	-1162.323364257813	-236.380599975586	510.944305419922	-1167.941650390625	-195.0937194824219	492.1062927246095	-1064.787109375	-211.4798736572266	317.5470886230469	-1118.975830078125	-281.0269775390626	289.9211425781251	-1169.418090820313	-242.2290039062501	277.3808898925782	-1150.9365234375	-261.4595336914063	200.3822784423829	-1118.796264648438	-374.7866821289063	85.08094787597658	-1119.9267578125	-315.3240051269532	95.89376068115236	-1060.622436523438	-407.1011047363282	42.75024414062501	-1057.506958007813	-205.9873962402344	46.53341674804688	-1124.037841796875	-216.5520477294922	51.3930015563965	-1172.969482421875	-270.6195678710938	31.39908027648926	-1205.289428710938	-308.5696411132813	725.3173828125001	-668.8182983398439	-260.3954162597657	683.6210937500001	-648.9464721679689	-228.7301635742188	695.1059570312501	-645.1553344726564	-261.4324645996094	597.5484619140626	-658.1634521484376	-209.5131835937501	482.3088684082032	-648.2736816406251	-183.8655548095703	483.166229248047	-756.6357421875001	-192.8861236572266	304.8330383300782	-671.8496704101564	-294.7810668945313	247.0046844482422	-663.1481323242189	-248.039291381836	239.1291198730469	-662.1271972656251	-242.1717529296876	187.4528961181641	-690.7388916015626	-341.9222412109376	88.7691116333008	-688.5908813476564	-289.3594360351563	90.91708374023439	-756.2811889648439	-380.6978454589844	39.52461624145509	-770.204772949219	-182.1217803955078	47.80797958374024	-678.5671997070314	-201.4308471679688	53.65507888793947	-636.0137939453126	-258.0421447753907	35.76299285888673	-609.3513183593751	
173	0.86	-156.1170196533203	1653.269165039063	-916.401306152344	-312.8233642578126	1596.614013671875	-974.4311523437502	-301.1397705078126	1586.292114257813	-829.0017700195315	-363.6508483886719	1438.317749023438	-895.6697998046877	-406.600799560547	1158.570434570313	-894.2969360351565	-228.0755615234376	1386.359497070313	-915.7144775390627	-279.8504333496094	1429.887084960938	-1078.718505859375	-303.2174072265626	1254.491088867188	-1250.241577148438	-264.6636352539063	1225.253540039063	-1232.286376953125	-283.4628601074219	1192.3486328125	-1278.517944335938	-272.8297119140626	1129.764282226563	-1292.368408203125	-351.8415832519532	1111.679809570313	-1286.582275390625	-316.7130432128907	880.0066528320315	-1138.527954101563	-262.8916320800782	851.738220214844	-1178.879272460938	-290.4244384765626	869.0742797851565	-1076.776123046875	-240.9734649658204	1415.138427734375	-745.1495971679689	-215.7119903564454	1251.430908203125	-587.2238159179689	-199.3856964111329	1209.515380859375	-607.3480834960939	-208.7722167968751	1193.00927734375	-551.2233886718751	-198.7469024658204	1118.177978515625	-529.6953125000001	-279.7796936035157	1105.52294921875	-513.7492675781251	-261.6680297851563	890.9923095703127	-677.0253295898439	-200.6918945312501	861.2083129882815	-654.3859252929689	-239.9692535400391	876.1536865234377	-745.7281494140626	-307.1283569335938	940.5251464843752	-1018.536926269531	-285.4440917968751	954.3129882812502	-771.612976074219	-449.7722473144532	1033.641479492188	-887.1907958984377	-471.9365234375001	1005.522888183594	-912.6613769531252	-463.7986450195314	1006.351501464844	-854.8977661132815	-302.6604309082032	685.0157470703126	-1149.408325195313	-246.8098297119141	623.5468139648439	-1171.80322265625	-202.1557159423829	641.3977661132814	-1157.973266601563	-251.9112548828126	564.1490478515626	-1162.67431640625	-236.1482391357422	510.2984008789064	-1168.388061523438	-194.5957336425782	491.8942260742189	-1065.248413085938	-211.1483459472657	317.2974853515626	-1119.126220703125	-280.6401977539063	289.7648925781251	-1169.73486328125	-241.9049682617188	277.1727600097657	-1151.268432617188	-261.3271789550782	200.4638214111329	-1118.95654296875	-374.7381286621094	85.0724563598633	-1119.956420898438	-315.2596740722657	95.92742919921876	-1060.6220703125	-407.1127014160157	42.72343063354493	-1057.505981445313	-205.9816589355469	46.53238677978516	-1124.031616210938	-216.5093994140626	51.40061187744142	-1172.989379882813	-270.5568847656251	31.33666419982911	-1205.3056640625	-308.4524230957032	724.6829833984376	-668.5807495117189	-259.9434204101563	683.1813354492189	-648.7692260742189	-228.5034484863282	694.5949096679689	-644.8224487304689	-261.0834350585938	597.1245117187501	-657.8684082031251	-208.8988952636719	482.0261840820314	-647.8410034179689	-183.4387664794922	482.358123779297	-756.3458251953126	-192.4544372558594	304.6955261230469	-671.7407226562501	-294.5053100585938	246.9153594970704	-663.0203857421876	-247.7019195556641	239.0092163085938	-661.9553833007814	-241.9436645507813	187.336654663086	-690.6348876953126	-341.8533630371094	88.73492431640626	-688.6075439453126	-289.3608398437501	90.8896942138672	-756.2409667968751	-380.6335754394532	39.52985763549805	-770.2348632812502	-182.1226043701172	47.81990051269532	-678.5693359375001	-201.4514770507813	53.72064208984376	-636.0372314453126	-258.0381469726563	35.7773551940918	-609.3797607421876	
174	0.865	-155.4869232177735	1652.069580078125	-916.5474243164065	-312.4081115722657	1595.093627929688	-974.4411621093752	-300.3798217773438	1585.289916992188	-829.0361938476565	-363.0877685546876	1437.521728515625	-895.663024902344	-406.6652221679689	1157.675048828125	-894.2153320312502	-227.4367828369141	1385.418701171875	-915.7271118164065	-279.5105590820313	1428.96435546875	-1078.603271484375	-302.8623352050782	1253.599487304688	-1250.241821289063	-264.5125122070313	1224.1630859375	-1232.417846679688	-283.3327026367188	1191.470703125	-1278.677368164063	-272.7171630859376	1128.918334960938	-1292.531127929688	-351.8359069824219	1110.86572265625	-1286.686157226563	-317.0942077636719	879.068542480469	-1138.550537109375	-263.2294006347657	851.0210571289065	-1179.10888671875	-290.8692932128907	868.3648071289065	-1076.923583984375	-240.4425659179688	1413.93798828125	-745.0679931640626	-214.9713134765626	1250.33642578125	-587.2650756835939	-199.0326690673829	1208.4326171875	-607.3696899414064	-208.3713073730469	1192.187622070313	-551.1831665039064	-198.4640045166016	1117.32373046875	-529.5427856445314	-279.5980834960938	1104.5986328125	-513.6018066406251	-261.9767456054688	890.3897705078127	-676.9831542968751	-200.7275085449219	860.4744873046877	-654.6454467773439	-240.5363311767579	875.6712036132815	-746.2311401367189	-307.6720581054688	939.6756591796877	-1018.415832519531	-285.7408752441407	953.2449951171877	-771.4744262695315	-449.973114013672	1032.773559570313	-887.0547485351565	-472.3103332519532	1004.624572753906	-912.4238891601565	-464.0339660644532	1005.380432128906	-854.7429199218752	-302.6435852050782	684.5099487304689	-1149.613891601563	-246.5653686523438	623.2380371093751	-1172.090454101563	-202.0868682861329	641.0997924804689	-1158.034423828125	-251.5899963378907	563.8115234375001	-1163.02490234375	-235.8551177978516	510.0482482910157	-1168.744995117188	-193.7823181152344	491.2153625488282	-1065.949829101563	-210.7584686279297	317.0900878906251	-1119.524780273438	-280.2029113769532	289.5662231445313	-1170.10107421875	-241.7762603759766	277.1702880859376	-1151.482299804688	-261.1294555664063	200.3662719726563	-1119.045654296875	-374.7397766113282	85.05123901367189	-1119.968627929688	-315.1816406250001	95.95138549804689	-1060.621704101563	-407.1408691406251	42.74510574340821	-1057.45703125	-205.9824523925782	46.53850555419923	-1124.034057617188	-216.5379943847657	51.35445785522462	-1173.025024414063	-270.4724731445313	31.28110504150391	-1205.284423828125	-308.3265991210938	723.9174194335939	-668.3398437500001	-259.7603454589844	682.5379638671876	-648.5942382812501	-228.3241882324219	694.2713623046876	-644.6243896484376	-260.7249145507813	596.5116577148439	-657.5408935546876	-208.3857421875001	481.4892883300782	-647.6975708007814	-182.5176544189453	482.583465576172	-755.9225463867189	-192.0286102294922	304.3889465332032	-671.4842529296876	-294.0931091308594	247.021224975586	-662.7417602539064	-247.3888397216797	238.8715362548829	-661.7958374023439	-241.7342376708985	187.0513000488282	-690.6547241210939	-341.7951049804688	88.72737121582033	-688.5752563476564	-289.2845153808594	90.88889312744142	-756.2352905273439	-380.6011352539063	39.55695724487305	-770.141296386719	-182.1197814941407	47.79252243041993	-678.5968017578126	-201.4478302001954	53.73336410522462	-636.0562133789064	-258.0330200195313	35.74823760986329	-609.3571166992189	
